<svg xmlns="http://www.w3.org/2000/svg" xmlns:xlink="http://www.w3.org/1999/xlink" width="170" zoomAndPan="magnify" viewBox="0 0 127.5 32.249999" height="43" preserveAspectRatio="xMidYMid meet" version="1.0"><defs><g/><clipPath id="d5ac33ce61"><path d="M 1.203125 0 L 125.808594 0 L 125.808594 31.515625 L 1.203125 31.515625 Z M 1.203125 0 " clip-rule="nonzero"/></clipPath><clipPath id="01f17d19d7"><path d="M 18.339844 0 L 60.550781 0 L 60.550781 31.515625 L 18.339844 31.515625 Z M 18.339844 0 " clip-rule="nonzero"/></clipPath><clipPath id="3380786b19"><path d="M 39.445312 0 C 27.789062 0 18.339844 9.449219 18.339844 21.105469 C 18.339844 32.761719 27.789062 42.210938 39.445312 42.210938 C 51.101562 42.210938 60.550781 32.761719 60.550781 21.105469 C 60.550781 9.449219 51.101562 0 39.445312 0 Z M 39.445312 0 " clip-rule="nonzero"/></clipPath><clipPath id="7bd2f0890c"><path d="M 30.878906 12.539062 L 48.011719 12.539062 L 48.011719 29.671875 L 30.878906 29.671875 Z M 30.878906 12.539062 " clip-rule="nonzero"/></clipPath><clipPath id="de9d69417d"><path d="M 39.445312 12.539062 C 34.714844 12.539062 30.878906 16.375 30.878906 21.105469 C 30.878906 25.835938 34.714844 29.671875 39.445312 29.671875 C 44.175781 29.671875 48.011719 25.835938 48.011719 21.105469 C 48.011719 16.375 44.175781 12.539062 39.445312 12.539062 Z M 39.445312 12.539062 " clip-rule="nonzero"/></clipPath><clipPath id="db62527d9d"><path d="M 45.605469 16.949219 L 62.039062 16.949219 L 62.039062 25.261719 L 45.605469 25.261719 Z M 45.605469 16.949219 " clip-rule="nonzero"/></clipPath><clipPath id="de45f008de"><path d="M 63 0 L 65 0 L 65 31.515625 L 63 31.515625 Z M 63 0 " clip-rule="nonzero"/></clipPath></defs><g clip-path="url(#d5ac33ce61)"><path fill="#ffffff" d="M 1.203125 0 L 125.808594 0 L 125.808594 31.515625 L 1.203125 31.515625 Z M 1.203125 0 " fill-opacity="1" fill-rule="nonzero"/><path fill="#ffffff" d="M 1.203125 0 L 125.808594 0 L 125.808594 31.515625 L 1.203125 31.515625 Z M 1.203125 0 " fill-opacity="1" fill-rule="nonzero"/></g><g clip-path="url(#01f17d19d7)"><g clip-path="url(#3380786b19)"><path fill="#8aa4d5" d="M 18.339844 0 L 60.550781 0 L 60.550781 42.210938 L 18.339844 42.210938 Z M 18.339844 0 " fill-opacity="1" fill-rule="nonzero"/></g></g><g clip-path="url(#7bd2f0890c)"><g clip-path="url(#de9d69417d)"><path fill="#fdfdfd" d="M 30.878906 12.539062 L 48.011719 12.539062 L 48.011719 29.671875 L 30.878906 29.671875 Z M 30.878906 12.539062 " fill-opacity="1" fill-rule="nonzero"/></g></g><g clip-path="url(#db62527d9d)"><path fill="#fdfdfd" d="M 45.605469 16.949219 L 62.042969 16.949219 L 62.042969 25.261719 L 45.605469 25.261719 Z M 45.605469 16.949219 " fill-opacity="1" fill-rule="nonzero"/></g><g fill="#323232" fill-opacity="1"><g transform="translate(66.857685, 19.853199)"><g><path d="M 5.28125 0.078125 C 4.40625 0.078125 3.613281 -0.113281 2.90625 -0.5 C 2.207031 -0.894531 1.65625 -1.429688 1.25 -2.109375 C 0.851562 -2.796875 0.65625 -3.566406 0.65625 -4.421875 C 0.65625 -5.273438 0.851562 -6.046875 1.25 -6.734375 C 1.65625 -7.421875 2.210938 -7.957031 2.921875 -8.34375 C 3.628906 -8.726562 4.421875 -8.921875 5.296875 -8.921875 C 5.953125 -8.921875 6.554688 -8.8125 7.109375 -8.59375 C 7.671875 -8.375 8.144531 -8.054688 8.53125 -7.640625 L 7.9375 -7.046875 C 7.25 -7.742188 6.378906 -8.09375 5.328125 -8.09375 C 4.617188 -8.09375 3.976562 -7.929688 3.40625 -7.609375 C 2.832031 -7.285156 2.382812 -6.84375 2.0625 -6.28125 C 1.738281 -5.726562 1.578125 -5.109375 1.578125 -4.421875 C 1.578125 -3.734375 1.738281 -3.109375 2.0625 -2.546875 C 2.382812 -1.992188 2.832031 -1.554688 3.40625 -1.234375 C 3.976562 -0.921875 4.617188 -0.765625 5.328125 -0.765625 C 6.390625 -0.765625 7.257812 -1.113281 7.9375 -1.8125 L 8.53125 -1.21875 C 8.144531 -0.800781 7.671875 -0.476562 7.109375 -0.25 C 6.546875 -0.03125 5.9375 0.078125 5.28125 0.078125 Z M 5.28125 0.078125 "/></g></g></g><g fill="#323232" fill-opacity="1"><g transform="translate(75.944662, 19.853199)"><g><path d="M 6.984375 -2.359375 L 2.0625 -2.359375 L 1 0 L 0.03125 0 L 4.0625 -8.84375 L 5 -8.84375 L 9.03125 0 L 8.046875 0 Z M 6.65625 -3.125 L 4.53125 -7.875 L 2.40625 -3.125 Z M 6.65625 -3.125 "/></g></g></g><g fill="#323232" fill-opacity="1"><g transform="translate(85.006358, 19.853199)"><g><path d="M 5.28125 0.078125 C 4.40625 0.078125 3.613281 -0.113281 2.90625 -0.5 C 2.207031 -0.894531 1.65625 -1.429688 1.25 -2.109375 C 0.851562 -2.796875 0.65625 -3.566406 0.65625 -4.421875 C 0.65625 -5.273438 0.851562 -6.046875 1.25 -6.734375 C 1.65625 -7.421875 2.210938 -7.957031 2.921875 -8.34375 C 3.628906 -8.726562 4.421875 -8.921875 5.296875 -8.921875 C 5.953125 -8.921875 6.554688 -8.8125 7.109375 -8.59375 C 7.671875 -8.375 8.144531 -8.054688 8.53125 -7.640625 L 7.9375 -7.046875 C 7.25 -7.742188 6.378906 -8.09375 5.328125 -8.09375 C 4.617188 -8.09375 3.976562 -7.929688 3.40625 -7.609375 C 2.832031 -7.285156 2.382812 -6.84375 2.0625 -6.28125 C 1.738281 -5.726562 1.578125 -5.109375 1.578125 -4.421875 C 1.578125 -3.734375 1.738281 -3.109375 2.0625 -2.546875 C 2.382812 -1.992188 2.832031 -1.554688 3.40625 -1.234375 C 3.976562 -0.921875 4.617188 -0.765625 5.328125 -0.765625 C 6.390625 -0.765625 7.257812 -1.113281 7.9375 -1.8125 L 8.53125 -1.21875 C 8.144531 -0.800781 7.671875 -0.476562 7.109375 -0.25 C 6.546875 -0.03125 5.9375 0.078125 5.28125 0.078125 Z M 5.28125 0.078125 "/></g></g></g><g fill="#323232" fill-opacity="1"><g transform="translate(94.093335, 19.853199)"><g><path d="M 8.828125 -8.84375 L 8.828125 0 L 7.90625 0 L 7.90625 -4.078125 L 2.375 -4.078125 L 2.375 0 L 1.4375 0 L 1.4375 -8.84375 L 2.375 -8.84375 L 2.375 -4.90625 L 7.90625 -4.90625 L 7.90625 -8.84375 Z M 8.828125 -8.84375 "/></g></g></g><g fill="#323232" fill-opacity="1"><g transform="translate(104.368312, 19.853199)"><g><path d="M 5.3125 0.078125 C 4.4375 0.078125 3.640625 -0.113281 2.921875 -0.5 C 2.210938 -0.894531 1.65625 -1.429688 1.25 -2.109375 C 0.851562 -2.796875 0.65625 -3.566406 0.65625 -4.421875 C 0.65625 -5.273438 0.851562 -6.039062 1.25 -6.71875 C 1.65625 -7.40625 2.210938 -7.941406 2.921875 -8.328125 C 3.640625 -8.722656 4.4375 -8.921875 5.3125 -8.921875 C 6.1875 -8.921875 6.972656 -8.726562 7.671875 -8.34375 C 8.378906 -7.957031 8.9375 -7.421875 9.34375 -6.734375 C 9.75 -6.046875 9.953125 -5.273438 9.953125 -4.421875 C 9.953125 -3.566406 9.75 -2.796875 9.34375 -2.109375 C 8.9375 -1.429688 8.378906 -0.894531 7.671875 -0.5 C 6.972656 -0.113281 6.1875 0.078125 5.3125 0.078125 Z M 5.3125 -0.765625 C 6.007812 -0.765625 6.640625 -0.921875 7.203125 -1.234375 C 7.765625 -1.546875 8.207031 -1.984375 8.53125 -2.546875 C 8.851562 -3.109375 9.015625 -3.734375 9.015625 -4.421875 C 9.015625 -5.109375 8.851562 -5.734375 8.53125 -6.296875 C 8.207031 -6.859375 7.765625 -7.296875 7.203125 -7.609375 C 6.640625 -7.929688 6.007812 -8.09375 5.3125 -8.09375 C 4.613281 -8.09375 3.976562 -7.929688 3.40625 -7.609375 C 2.832031 -7.296875 2.382812 -6.859375 2.0625 -6.296875 C 1.738281 -5.734375 1.578125 -5.109375 1.578125 -4.421875 C 1.578125 -3.734375 1.738281 -3.109375 2.0625 -2.546875 C 2.382812 -1.984375 2.832031 -1.546875 3.40625 -1.234375 C 3.976562 -0.921875 4.613281 -0.765625 5.3125 -0.765625 Z M 5.3125 -0.765625 "/></g></g></g><g fill="#868687" fill-opacity="1"><g transform="translate(68.20517, 27.207964)"><g><path d="M 0.359375 -3.484375 L 0.359375 -3.9375 L 0.84375 -3.9375 L 0.84375 -3.484375 Z M 0.359375 0 L 0.359375 -2.875 L 0.84375 -2.875 L 0.84375 0 Z M 0.359375 0 "/></g></g></g><g fill="#868687" fill-opacity="1"><g transform="translate(70.965169, 27.207964)"><g><path d="M 2.1875 0 L 2.1875 -1.828125 C 2.1875 -2.015625 2.164062 -2.160156 2.125 -2.265625 C 2.09375 -2.367188 2.035156 -2.441406 1.953125 -2.484375 C 1.867188 -2.535156 1.75 -2.5625 1.59375 -2.5625 C 1.363281 -2.5625 1.179688 -2.476562 1.046875 -2.3125 C 0.921875 -2.15625 0.859375 -1.941406 0.859375 -1.671875 L 0.859375 0 L 0.375 0 L 0.375 -2.265625 C 0.375 -2.597656 0.367188 -2.800781 0.359375 -2.875 L 0.8125 -2.875 C 0.8125 -2.863281 0.8125 -2.835938 0.8125 -2.796875 C 0.820312 -2.765625 0.828125 -2.722656 0.828125 -2.671875 C 0.828125 -2.617188 0.828125 -2.519531 0.828125 -2.375 L 0.84375 -2.375 C 0.945312 -2.570312 1.070312 -2.710938 1.21875 -2.796875 C 1.363281 -2.878906 1.546875 -2.921875 1.765625 -2.921875 C 2.078125 -2.921875 2.304688 -2.84375 2.453125 -2.6875 C 2.597656 -2.53125 2.671875 -2.273438 2.671875 -1.921875 L 2.671875 0 Z M 2.1875 0 "/></g></g></g><g fill="#868687" fill-opacity="1"><g transform="translate(75.53913, 27.207964)"><g><path d="M 2.046875 0 L 2.046875 -1.828125 C 2.046875 -2.097656 2.003906 -2.285156 1.921875 -2.390625 C 1.847656 -2.503906 1.710938 -2.5625 1.515625 -2.5625 C 1.304688 -2.5625 1.144531 -2.484375 1.03125 -2.328125 C 0.914062 -2.171875 0.859375 -1.953125 0.859375 -1.671875 L 0.859375 0 L 0.375 0 L 0.375 -2.265625 C 0.375 -2.597656 0.367188 -2.800781 0.359375 -2.875 L 0.8125 -2.875 C 0.8125 -2.863281 0.8125 -2.835938 0.8125 -2.796875 C 0.820312 -2.765625 0.828125 -2.722656 0.828125 -2.671875 C 0.828125 -2.617188 0.828125 -2.519531 0.828125 -2.375 L 0.84375 -2.375 C 0.945312 -2.582031 1.0625 -2.722656 1.1875 -2.796875 C 1.320312 -2.878906 1.488281 -2.921875 1.6875 -2.921875 C 1.894531 -2.921875 2.0625 -2.878906 2.1875 -2.796875 C 2.320312 -2.710938 2.414062 -2.570312 2.46875 -2.375 C 2.570312 -2.570312 2.691406 -2.710938 2.828125 -2.796875 C 2.972656 -2.878906 3.144531 -2.921875 3.34375 -2.921875 C 3.632812 -2.921875 3.84375 -2.84375 3.96875 -2.6875 C 4.101562 -2.53125 4.171875 -2.273438 4.171875 -1.921875 L 4.171875 0 L 3.703125 0 L 3.703125 -1.828125 C 3.703125 -2.097656 3.660156 -2.285156 3.578125 -2.390625 C 3.503906 -2.503906 3.367188 -2.5625 3.171875 -2.5625 C 2.960938 -2.5625 2.800781 -2.484375 2.6875 -2.328125 C 2.570312 -2.171875 2.515625 -1.953125 2.515625 -1.671875 L 2.515625 0 Z M 2.046875 0 "/></g></g></g><g fill="#868687" fill-opacity="1"><g transform="translate(81.616768, 27.207964)"><g><path d="M 2.796875 -1.4375 C 2.796875 -0.9375 2.679688 -0.5625 2.453125 -0.3125 C 2.234375 -0.0703125 1.914062 0.046875 1.5 0.046875 C 1.082031 0.046875 0.765625 -0.078125 0.546875 -0.328125 C 0.335938 -0.585938 0.234375 -0.957031 0.234375 -1.4375 C 0.234375 -2.425781 0.660156 -2.921875 1.515625 -2.921875 C 1.953125 -2.921875 2.273438 -2.800781 2.484375 -2.5625 C 2.691406 -2.320312 2.796875 -1.945312 2.796875 -1.4375 Z M 2.296875 -1.4375 C 2.296875 -1.832031 2.234375 -2.117188 2.109375 -2.296875 C 1.992188 -2.484375 1.800781 -2.578125 1.53125 -2.578125 C 1.25 -2.578125 1.046875 -2.484375 0.921875 -2.296875 C 0.796875 -2.109375 0.734375 -1.820312 0.734375 -1.4375 C 0.734375 -1.0625 0.789062 -0.773438 0.90625 -0.578125 C 1.03125 -0.390625 1.226562 -0.296875 1.5 -0.296875 C 1.78125 -0.296875 1.984375 -0.390625 2.109375 -0.578125 C 2.234375 -0.765625 2.296875 -1.050781 2.296875 -1.4375 Z M 2.296875 -1.4375 "/></g></g></g><g fill="#868687" fill-opacity="1"><g transform="translate(86.190728, 27.207964)"><g><path d="M 2.796875 -1.453125 C 2.796875 -0.453125 2.441406 0.046875 1.734375 0.046875 C 1.515625 0.046875 1.332031 0.0078125 1.1875 -0.0625 C 1.050781 -0.144531 0.9375 -0.273438 0.84375 -0.453125 C 0.84375 -0.390625 0.835938 -0.300781 0.828125 -0.1875 C 0.816406 -0.0820312 0.8125 -0.0195312 0.8125 0 L 0.34375 0 C 0.351562 -0.09375 0.359375 -0.289062 0.359375 -0.59375 L 0.359375 -3.9375 L 0.84375 -3.9375 L 0.84375 -2.8125 C 0.84375 -2.695312 0.835938 -2.5625 0.828125 -2.40625 L 0.84375 -2.40625 C 0.9375 -2.59375 1.054688 -2.722656 1.203125 -2.796875 C 1.347656 -2.878906 1.523438 -2.921875 1.734375 -2.921875 C 2.097656 -2.921875 2.363281 -2.796875 2.53125 -2.546875 C 2.707031 -2.304688 2.796875 -1.941406 2.796875 -1.453125 Z M 2.296875 -1.4375 C 2.296875 -1.832031 2.238281 -2.117188 2.125 -2.296875 C 2.019531 -2.472656 1.847656 -2.5625 1.609375 -2.5625 C 1.347656 -2.5625 1.15625 -2.46875 1.03125 -2.28125 C 0.90625 -2.09375 0.84375 -1.800781 0.84375 -1.40625 C 0.84375 -1.03125 0.898438 -0.75 1.015625 -0.5625 C 1.140625 -0.382812 1.335938 -0.296875 1.609375 -0.296875 C 1.847656 -0.296875 2.019531 -0.382812 2.125 -0.5625 C 2.238281 -0.738281 2.296875 -1.03125 2.296875 -1.4375 Z M 2.296875 -1.4375 "/></g></g></g><g fill="#868687" fill-opacity="1"><g transform="translate(90.764687, 27.207964)"><g><path d="M 0.359375 -3.484375 L 0.359375 -3.9375 L 0.84375 -3.9375 L 0.84375 -3.484375 Z M 0.359375 0 L 0.359375 -2.875 L 0.84375 -2.875 L 0.84375 0 Z M 0.359375 0 "/></g></g></g><g fill="#868687" fill-opacity="1"><g transform="translate(93.524686, 27.207964)"><g><path d="M 0.359375 0 L 0.359375 -3.9375 L 0.84375 -3.9375 L 0.84375 0 Z M 0.359375 0 "/></g></g></g><g fill="#868687" fill-opacity="1"><g transform="translate(96.284685, 27.207964)"><g><path d="M 0.359375 -3.484375 L 0.359375 -3.9375 L 0.84375 -3.9375 L 0.84375 -3.484375 Z M 0.359375 0 L 0.359375 -2.875 L 0.84375 -2.875 L 0.84375 0 Z M 0.359375 0 "/></g></g></g><g fill="#868687" fill-opacity="1"><g transform="translate(99.044686, 27.207964)"><g><path d="M 1.09375 0.046875 C 0.8125 0.046875 0.597656 -0.0234375 0.453125 -0.171875 C 0.304688 -0.328125 0.234375 -0.535156 0.234375 -0.796875 C 0.234375 -1.097656 0.328125 -1.328125 0.515625 -1.484375 C 0.710938 -1.640625 1.03125 -1.722656 1.46875 -1.734375 L 2.109375 -1.75 L 2.109375 -1.90625 C 2.109375 -2.144531 2.054688 -2.3125 1.953125 -2.40625 C 1.859375 -2.507812 1.707031 -2.5625 1.5 -2.5625 C 1.28125 -2.5625 1.125 -2.523438 1.03125 -2.453125 C 0.9375 -2.378906 0.878906 -2.265625 0.859375 -2.109375 L 0.359375 -2.15625 C 0.441406 -2.664062 0.828125 -2.921875 1.515625 -2.921875 C 1.867188 -2.921875 2.132812 -2.835938 2.3125 -2.671875 C 2.5 -2.503906 2.59375 -2.265625 2.59375 -1.953125 L 2.59375 -0.71875 C 2.59375 -0.582031 2.609375 -0.476562 2.640625 -0.40625 C 2.679688 -0.332031 2.757812 -0.296875 2.875 -0.296875 C 2.914062 -0.296875 2.96875 -0.300781 3.03125 -0.3125 L 3.03125 -0.015625 C 2.90625 0.015625 2.78125 0.03125 2.65625 0.03125 C 2.476562 0.03125 2.347656 -0.015625 2.265625 -0.109375 C 2.179688 -0.203125 2.132812 -0.347656 2.125 -0.546875 L 2.109375 -0.546875 C 1.992188 -0.328125 1.851562 -0.171875 1.6875 -0.078125 C 1.53125 0.00390625 1.332031 0.046875 1.09375 0.046875 Z M 1.203125 -0.3125 C 1.378906 -0.3125 1.535156 -0.347656 1.671875 -0.421875 C 1.804688 -0.503906 1.910156 -0.613281 1.984375 -0.75 C 2.066406 -0.894531 2.109375 -1.039062 2.109375 -1.1875 L 2.109375 -1.421875 L 1.59375 -1.40625 C 1.363281 -1.40625 1.191406 -1.382812 1.078125 -1.34375 C 0.960938 -1.300781 0.875 -1.234375 0.8125 -1.140625 C 0.75 -1.054688 0.71875 -0.941406 0.71875 -0.796875 C 0.71875 -0.640625 0.757812 -0.519531 0.84375 -0.4375 C 0.925781 -0.351562 1.046875 -0.3125 1.203125 -0.3125 Z M 1.203125 -0.3125 "/></g></g></g><g fill="#868687" fill-opacity="1"><g transform="translate(103.618646, 27.207964)"><g><path d="M 0.375 0 L 0.375 -2.203125 C 0.375 -2.398438 0.367188 -2.625 0.359375 -2.875 L 0.8125 -2.875 C 0.820312 -2.550781 0.828125 -2.351562 0.828125 -2.28125 L 0.84375 -2.28125 C 0.914062 -2.53125 1 -2.695312 1.09375 -2.78125 C 1.195312 -2.875 1.34375 -2.921875 1.53125 -2.921875 C 1.59375 -2.921875 1.65625 -2.914062 1.71875 -2.90625 L 1.71875 -2.46875 C 1.65625 -2.476562 1.570312 -2.484375 1.46875 -2.484375 C 1.269531 -2.484375 1.117188 -2.394531 1.015625 -2.21875 C 0.910156 -2.050781 0.859375 -1.8125 0.859375 -1.5 L 0.859375 0 Z M 0.375 0 "/></g></g></g><g fill="#868687" fill-opacity="1"><g transform="translate(106.980646, 27.207964)"><g><path d="M 0.359375 -3.484375 L 0.359375 -3.9375 L 0.84375 -3.9375 L 0.84375 -3.484375 Z M 0.359375 0 L 0.359375 -2.875 L 0.84375 -2.875 L 0.84375 0 Z M 0.359375 0 "/></g></g></g><g fill="#868687" fill-opacity="1"><g transform="translate(109.740645, 27.207964)"><g><path d="M 1.09375 0.046875 C 0.8125 0.046875 0.597656 -0.0234375 0.453125 -0.171875 C 0.304688 -0.328125 0.234375 -0.535156 0.234375 -0.796875 C 0.234375 -1.097656 0.328125 -1.328125 0.515625 -1.484375 C 0.710938 -1.640625 1.03125 -1.722656 1.46875 -1.734375 L 2.109375 -1.75 L 2.109375 -1.90625 C 2.109375 -2.144531 2.054688 -2.3125 1.953125 -2.40625 C 1.859375 -2.507812 1.707031 -2.5625 1.5 -2.5625 C 1.28125 -2.5625 1.125 -2.523438 1.03125 -2.453125 C 0.9375 -2.378906 0.878906 -2.265625 0.859375 -2.109375 L 0.359375 -2.15625 C 0.441406 -2.664062 0.828125 -2.921875 1.515625 -2.921875 C 1.867188 -2.921875 2.132812 -2.835938 2.3125 -2.671875 C 2.5 -2.503906 2.59375 -2.265625 2.59375 -1.953125 L 2.59375 -0.71875 C 2.59375 -0.582031 2.609375 -0.476562 2.640625 -0.40625 C 2.679688 -0.332031 2.757812 -0.296875 2.875 -0.296875 C 2.914062 -0.296875 2.96875 -0.300781 3.03125 -0.3125 L 3.03125 -0.015625 C 2.90625 0.015625 2.78125 0.03125 2.65625 0.03125 C 2.476562 0.03125 2.347656 -0.015625 2.265625 -0.109375 C 2.179688 -0.203125 2.132812 -0.347656 2.125 -0.546875 L 2.109375 -0.546875 C 1.992188 -0.328125 1.851562 -0.171875 1.6875 -0.078125 C 1.53125 0.00390625 1.332031 0.046875 1.09375 0.046875 Z M 1.203125 -0.3125 C 1.378906 -0.3125 1.535156 -0.347656 1.671875 -0.421875 C 1.804688 -0.503906 1.910156 -0.613281 1.984375 -0.75 C 2.066406 -0.894531 2.109375 -1.039062 2.109375 -1.1875 L 2.109375 -1.421875 L 1.59375 -1.40625 C 1.363281 -1.40625 1.191406 -1.382812 1.078125 -1.34375 C 0.960938 -1.300781 0.875 -1.234375 0.8125 -1.140625 C 0.75 -1.054688 0.71875 -0.941406 0.71875 -0.796875 C 0.71875 -0.640625 0.757812 -0.519531 0.84375 -0.4375 C 0.925781 -0.351562 1.046875 -0.3125 1.203125 -0.3125 Z M 1.203125 -0.3125 "/></g></g></g><g clip-path="url(#de45f008de)"><path fill="#000000" d="M 64.234375 -13.167969 L 64.234375 -12.433594 L 63.5 -12.433594 L 63.5 -13.167969 M 64.234375 -11.699219 L 64.234375 -10.96875 L 63.5 -10.96875 L 63.5 -11.699219 M 64.234375 -10.234375 L 64.234375 -9.503906 L 63.5 -9.503906 L 63.5 -10.234375 M 64.234375 -8.769531 L 64.234375 -8.035156 L 63.5 -8.035156 L 63.5 -8.769531 M 64.234375 -7.304688 L 64.234375 -6.570312 L 63.5 -6.570312 L 63.5 -7.304688 M 64.234375 -5.835938 L 64.234375 -5.105469 L 63.5 -5.105469 L 63.5 -5.835938 M 64.234375 -4.371094 L 64.234375 -3.636719 L 63.5 -3.636719 L 63.5 -4.371094 M 64.234375 -2.90625 L 64.234375 -2.171875 L 63.5 -2.171875 L 63.5 -2.90625 M 64.234375 -1.441406 L 64.234375 -0.707031 L 63.5 -0.707031 L 63.5 -1.441406 M 64.234375 0.0273438 L 64.234375 0.757812 L 63.5 0.757812 L 63.5 0.0273438 M 64.234375 1.492188 L 64.234375 2.226562 L 63.5 2.226562 L 63.5 1.492188 M 64.234375 2.957031 L 64.234375 3.691406 L 63.5 3.691406 L 63.5 2.957031 M 64.234375 4.425781 L 64.234375 5.15625 L 63.5 5.15625 L 63.5 4.425781 M 64.234375 5.890625 L 64.234375 6.621094 L 63.5 6.621094 L 63.5 5.890625 M 64.234375 7.355469 L 64.234375 8.089844 L 63.5 8.089844 L 63.5 7.355469 M 64.234375 8.820312 L 64.234375 9.554688 L 63.5 9.554688 L 63.5 8.820312 M 64.234375 10.289062 L 64.234375 11.019531 L 63.5 11.019531 L 63.5 10.289062 M 64.234375 11.753906 L 64.234375 12.488281 L 63.5 12.488281 L 63.5 11.753906 M 64.234375 13.21875 L 64.234375 13.953125 L 63.5 13.953125 L 63.5 13.21875 M 64.234375 14.683594 L 64.234375 15.417969 L 63.5 15.417969 L 63.5 14.683594 M 64.234375 16.152344 L 64.234375 16.882812 L 63.5 16.882812 L 63.5 16.152344 M 64.234375 17.617188 L 64.234375 18.351562 L 63.5 18.351562 L 63.5 17.617188 M 64.234375 19.082031 L 64.234375 19.816406 L 63.5 19.816406 L 63.5 19.082031 M 64.234375 20.550781 L 64.234375 21.28125 L 63.5 21.28125 L 63.5 20.550781 M 64.234375 22.015625 L 64.234375 22.746094 L 63.5 22.746094 L 63.5 22.015625 M 64.234375 23.480469 L 64.234375 24.214844 L 63.5 24.214844 L 63.5 23.480469 M 64.234375 24.945312 L 64.234375 25.679688 L 63.5 25.679688 L 63.5 24.945312 M 64.234375 26.414062 L 64.234375 27.144531 L 63.5 27.144531 L 63.5 26.414062 M 64.234375 27.878906 L 64.234375 28.613281 L 63.5 28.613281 L 63.5 27.878906 M 64.234375 29.34375 L 64.234375 30.078125 L 63.5 30.078125 L 63.5 29.34375 M 64.234375 30.808594 L 64.234375 31.542969 L 63.5 31.542969 L 63.5 30.808594 M 64.234375 32.277344 L 64.234375 33.007812 L 63.5 33.007812 L 63.5 32.277344 M 64.234375 33.742188 L 64.234375 34.152344 L 63.5 34.152344 L 63.5 33.742188 " fill-opacity="1" fill-rule="nonzero"/></g></svg>